<svg id="Politie_Symbool_Blauw_RGB" xmlns="http://www.w3.org/2000/svg" viewBox="0 0 59.53 77.6"><defs><style>.cls-1{fill:#182866;}</style></defs><title>Politie_Symbool_Blauw_RGB</title><path class="cls-1" d="M28.58,51.76a12.39,12.39,0,0,1-.83-5c0-4.6,5-8.48,5-8.48,3.44-3,5.66-5.61,6.1-8.36A14.67,14.67,0,0,0,38.07,24a5.11,5.11,0,0,1,2.47,1.55,10,10,0,0,1,1.12,1.58,9.61,9.61,0,0,0,.18-5.46A8.8,8.8,0,0,0,39,16.88a9,9,0,0,0-3.56-2.08c.44.9.74,2.12.51,4.66a11,11,0,0,1-2.65,6.39c-1.62,2.2-4.89,4.86-6.85,7.52A12.47,12.47,0,0,0,23.8,40a17,17,0,0,0,1,6.08h0a8.88,8.88,0,0,1-3.4-3.58,13.05,13.05,0,0,1-1.54-6.59,15.49,15.49,0,0,1,3.15-9.31c1.53-1.89,5.25-5.5,6.61-8.35a10.4,10.4,0,0,0,1.16-5.56,11.73,11.73,0,0,0-.57-2.89,6.12,6.12,0,0,1,2.22,1.14c.58.51,1.09,1,1.09,1a12.63,12.63,0,0,0-.17-4.31,9.53,9.53,0,0,0-3.85-6.14,6.44,6.44,0,0,0-4-1.49,8.4,8.4,0,0,1,1.75,4,9.52,9.52,0,0,1-.59,5.59c-1.06,2.42-3.83,4.55-5.9,6.6a25.58,25.58,0,0,0-5.44,7.22,14.13,14.13,0,0,0-1.24,9.7,15.26,15.26,0,0,0,3,6.69A10.81,10.81,0,0,1,13,37.07a9.59,9.59,0,0,1-2-3.25L0,41.34V52.65L29.75,77.6,59.53,52.66V48.79L30,73.6V69.74L59.53,45V41.57L43.28,30.82a10.41,10.41,0,0,1-1,7c-1.94,4.15-6.85,7.43-8.38,8.39-1.85,1.17-2.83,2.32-3.13,3.33a4.28,4.28,0,0,0-.2,2.35h0a4.33,4.33,0,0,1,3.53,4.34A4.54,4.54,0,1,1,28.6,51.8Z"/></svg>