<svg width="76" height="76" viewBox="0 0 76 76" fill="none" xmlns="http://www.w3.org/2000/svg">
<path d="M37.5708 0.5C16.7896 0.5 0.0708008 17.2188 0.0708008 38C0.0708008 58.7812 16.7896 75.5 37.5708 75.5C58.3521 75.5 75.0708 58.7812 75.0708 38C75.0708 17.2188 58.3521 0.5 37.5708 0.5ZM42.2583 59.875H32.8833V33.3125H42.2583V59.875ZM37.5708 26.2812C34.6021 26.2812 32.1021 23.7812 32.1021 20.8125C32.1021 17.8438 34.6021 15.3438 37.5708 15.3438C40.5396 15.3438 43.0396 17.8438 43.0396 20.8125C43.0396 23.7812 40.5396 26.2812 37.5708 26.2812Z" fill="#182866"/>
</svg>
